<?xml version="1.0" encoding="UTF-8"?>
<svg width="25px" height="19px" viewBox="0 0 25 19" version="1.1" xmlns="http://www.w3.org/2000/svg" xmlns:xlink="http://www.w3.org/1999/xlink">
    <!-- Generator: Sketch 55.1 (78136) - https://sketchapp.com -->
    <title>Group</title>
    <desc>Created with Sketch.</desc>
    <g id="logos" stroke="none" stroke-width="1" fill="none" fill-rule="evenodd">
        <g id="logo-youtube-blanco">
            <g id="Group">
                <path d="M16.4429669,8.98214507 L9.77721523,12.6649893 L9.77721523,6.9961557 L9.77721523,5.27133615 L12.7966064,6.95570683 L16.4429669,8.98214507 Z M24.4035785,3.99794593 C24.4035785,3.99794593 24.1502575,2.1772476 23.4151395,1.38275197 C22.4807748,0.342566938 21.4251084,0.328584614 20.9579261,0.259671732 C17.5112994,3.55271368e-15 12.3425772,3.55271368e-15 12.3425772,3.55271368e-15 L12.3148094,3.55271368e-15 C12.3148094,3.55271368e-15 7.15972756,3.55271368e-15 3.71261372,0.259671732 C3.21912497,0.328584614 2.17758605,0.342566938 1.24273423,1.38275197 C0.507616257,2.1772476 0.25478244,3.99794593 0.25478244,3.99794593 C0.25478244,3.99794593 0,6.13374592 0,8.24258001 L0,8.51623406 L0,10.2550359 C0,12.3908359 0.25478244,14.49967 0.25478244,14.49967 C0.25478244,14.49967 0.507616257,16.3208677 1.24273423,17.1283469 C2.17758605,18.1825143 3.40667993,18.1420654 3.96788331,18.2514272 C5.93112085,18.4566677 12.3425772,18.5250812 12.3425772,18.5250812 C12.3425772,18.5250812 17.5112994,18.4981153 20.9579261,18.2514272 C21.4251084,18.1825143 22.4807748,18.1825143 23.4151395,17.1283469 C24.1502575,16.3208677 24.4035785,14.49967 24.4035785,14.49967 C24.4035785,14.49967 24.6437462,12.3908359 24.6437462,10.2550359 L24.6437462,8.62609518 L24.6437462,8.24258001 C24.6437462,6.13374592 24.4035785,3.99794593 24.4035785,3.99794593 L24.4035785,3.99794593 Z" id="Fill-11" fill="#FFFFFF"></path>
                <rect id="Rectangle" x="0" y="0" width="25" height="19"></rect>
            </g>
        </g>
    </g>
</svg>