<?xml version="1.0" encoding="UTF-8"?>
<svg width="19px" height="18px" viewBox="0 0 19 18" version="1.1" xmlns="http://www.w3.org/2000/svg" xmlns:xlink="http://www.w3.org/1999/xlink">
    <!-- Generator: Sketch 55.1 (78136) - https://sketchapp.com -->
    <title>logo linkedin blanco</title>
    <desc>Created with Sketch.</desc>
    <g id="logo-linkedin-blanco" stroke="none" stroke-width="1" fill="none" fill-rule="evenodd">
        <path d="M2.2149378,0 C0.990982726,0 0,0.938825741 0,2.09836212 C0,3.25789851 0.990982726,4.19632149 2.2149378,4.19632149 C3.43889287,4.19632149 4.42945046,3.25789851 4.42945046,2.09836212 C4.42945046,0.938825741 3.43889287,0 2.2149378,0 L2.2149378,0 Z M18.8954175,9.6846863 C18.603777,7.40991676 17.5086369,5.99664369 14.2678555,5.99664369 C12.3675154,5.99664369 11.0853173,6.65917838 10.5492258,7.61975298 L10.4909827,7.61975298 L10.4909827,5.99664369 L6.95856082,5.99664369 L6.95856082,8.30443927 L6.95856082,18 L10.6542334,18 L10.6542334,12.048465 C10.6542334,10.4797279 10.9803097,8.96737671 13.0094648,8.96737671 C15.0483979,8.96737671 15.1997449,10.756019 15.1997449,12.1584176 L15.1997449,18 L19,18 L19,11.4076792 C19,10.789045 18.964714,10.2151168 18.8954175,9.6846863 L18.8954175,9.6846863 Z M0,9.1876846 L0,18 L4.42945046,18 L4.42945046,8.46997225 L4.42945046,5.99664369 L0,5.99664369 L0,9.1876846 Z" id="Fill-13" fill="#FFFFFF"></path>
    </g>
</svg>