<?xml version="1.0" encoding="UTF-8"?>
<svg width="24px" height="19px" viewBox="0 0 24 19" version="1.1" xmlns="http://www.w3.org/2000/svg" xmlns:xlink="http://www.w3.org/1999/xlink">
    <!-- Generator: Sketch 55.1 (78136) - https://sketchapp.com -->
    <title>Group</title>
    <desc>Created with Sketch.</desc>
    <g id="logos" stroke="none" stroke-width="1" fill="none" fill-rule="evenodd">
        <g id="logo-twiter-blanco">
            <g id="Group">
                <path d="M23.9552239,2.23109672 C23.0735371,2.60970455 22.1274999,2.86647204 21.1335131,2.98110513 C22.1484412,2.39212169 22.9253433,1.45791134 23.2935576,0.348147742 C22.3415316,0.893584261 21.2906706,1.2896412 20.1709577,1.50434116 C19.2743185,0.577375983 17.9989356,0 16.5843225,0 C13.8704104,0 11.6699316,2.1324713 11.6699316,4.76106641 C11.6699316,5.1338705 11.7133408,5.49798798 11.7971842,5.84617365 C7.71359469,5.64740549 4.09255315,3.75140761 1.66903989,0.870369354 C1.24539968,1.5725065 1.00439877,2.39064231 1.00439877,3.26397043 C1.00439877,4.91628765 1.87262049,6.37419899 3.1899251,7.22715717 C2.38456638,7.20105936 1.62711818,6.9863594 0.964003624,6.6294871 L0.964003624,6.68896582 C0.964003624,8.99551099 2.65852534,10.9205275 4.9053881,11.358652 C4.49372552,11.466002 4.05963423,11.5254807 3.61055133,11.5254807 C3.29322238,11.5254807 2.98634451,11.4950206 2.68545544,11.4369833 C3.31114969,13.3300983 5.12544772,14.7067575 7.27504115,14.7445007 C5.59398448,16.021093 3.47433513,16.779788 1.17208561,16.779788 C0.775414641,16.779788 0.384693341,16.7565731 1.77635684e-15,16.7145056 C2.17503611,18.0679877 4.75723341,18.8571429 7.53252109,18.8571429 C16.5724232,18.8571429 21.5137833,11.6009291 21.5137833,5.30798231 L21.4973043,4.69145962 C22.4627953,4.0241069 23.298059,3.18563908 23.9552239,2.23109672 Z" id="Path" fill="#FFFFFF" fill-rule="nonzero"></path>
                <rect id="Rectangle" x="0" y="0" width="24" height="19"></rect>
            </g>
        </g>
    </g>
</svg>