<?xml version="1.0" encoding="UTF-8"?>
<svg width="19px" height="18px" viewBox="0 0 19 18" version="1.1" xmlns="http://www.w3.org/2000/svg" xmlns:xlink="http://www.w3.org/1999/xlink">
    <!-- Generator: Sketch 55.1 (78136) - https://sketchapp.com -->
    <title>logo instagram blanco</title>
    <desc>Created with Sketch.</desc>
    <g id="logo-instagram-blanco" stroke="none" stroke-width="1" fill="none" fill-rule="evenodd">
        <g id="logo-instagram" fill="#FFFFFF" fill-rule="nonzero">
            <g>
                <path d="M13.7794686,0.113560268 L5.35663798,0.113560268 C2.61535075,0.113560268 0.385217467,2.30796378 0.385217467,5.00533186 L0.385217467,13.2933551 C0.385217467,15.9905853 2.61535075,18.1849888 5.35663798,18.1849888 L13.7796087,18.1849888 C16.5207558,18.1849888 18.7508891,15.9905853 18.7508891,13.2933551 L18.7508891,5.00533186 C18.7508891,2.30796378 16.5207558,0.113560268 13.7794686,0.113560268 Z M9.56805329,14.0905429 C6.79902252,14.0905429 4.54633006,11.8739417 4.54633006,9.14927455 C4.54633006,6.42460743 6.79902252,4.20800617 9.56805329,4.20800617 C12.3370841,4.20800617 14.5897765,6.42460743 14.5897765,9.14927455 C14.5897765,11.8739417 12.3370841,14.0905429 9.56805329,14.0905429 L9.56805329,14.0905429 Z M14.7098585,5.37331771 C13.8915638,5.37331771 13.2259987,4.71841595 13.2259987,3.91323145 C13.2259987,3.10804695 13.8915638,2.45300729 14.7098585,2.45300729 C15.5281531,2.45300729 16.1938583,3.10804695 16.1938583,3.91323145 C16.1938583,4.71841595 15.5281531,5.37331771 14.7098585,5.37331771 Z" id="Shape"></path>
                <path d="M9.56805329,5.61356027 C7.58680185,5.61356027 5.97476971,7.19963989 5.97476971,9.14927455 C5.97476971,11.0987836 7.58680185,12.6849888 9.56805329,12.6849888 C11.5494323,12.6849888 13.1613369,11.0987836 13.1613369,9.14927455 C13.1613369,7.19963989 11.5494323,5.61356027 9.56805329,5.61356027 Z" id="Path"></path>
            </g>
        </g>
    </g>
</svg>