<?xml version="1.0" encoding="UTF-8"?>
<svg 
  id="Layer_1" data-name="Layer 1" xmlns="http://www.w3.org/2000/svg" viewBox="0 0 387.01 140">
  <defs>
    <style>
      .cls-1 {
        fill: #fff;
      }
    </style>
  </defs>
  <path class="cls-1" d="m84.61,90c-5.42,9.06-14.42,15-24.61,15-16.57,0-30-15.67-30-35s13.43-35,30-35c10.19,0,19.19,5.94,24.61,15h32.89C110.12,21.09,87.18,0,60,0,26.86,0,0,31.34,0,70s26.86,70,60,70c27.18,0,50.12-21.09,57.5-50h-32.89Z"/>
  <path class="cls-1" d="m212.51,90c-5.42,9.06-14.42,15-24.61,15-16.57,0-30-15.67-30-35s13.43-35,30-35c10.19,0,19.19,5.94,24.61,15h32.89C238.02,21.09,215.07,0,187.89,0c-33.14,0-60,31.34-60,70s26.86,70,60,70c27.18,0,50.12-21.09,57.5-50h-32.89Z"/>
  <polygon class="cls-1" points="267.01 0 267.01 140 307.01 140 307.01 80 347.01 80 347.01 50 307.01 50 307.01 30 387.01 30 387.01 0 267.01 0"/>
</svg>